<?xml version="1.0" standalone="no"?>
<!DOCTYPE svg PUBLIC "-//W3C//DTD SVG 20010904//EN"
 "http://www.w3.org/TR/2001/REC-SVG-20010904/DTD/svg10.dtd">
<svg version="1.0" xmlns="http://www.w3.org/2000/svg"
 width="512.000000pt" height="512.000000pt" viewBox="0 0 512.000000 512.000000"
 preserveAspectRatio="xMidYMid meet">

<g transform="translate(0.000000,512.000000) scale(0.100000,-0.100000)"
fill="#000000" stroke="none">
<path d="M185 3815 l-25 -24 0 -1231 0 -1231 25 -24 24 -25 2351 0 2351 0 24
25 25 24 0 1231 0 1231 -25 24 -24 25 -2351 0 -2351 0 -24 -25z m4615 -1255
l0 -1120 -2240 0 -2240 0 0 1120 0 1120 2240 0 2240 0 0 -1120z"/>
<path d="M906 3497 c-17 -17 -24 -39 -29 -85 -7 -65 -38 -138 -81 -189 -39
-46 -134 -92 -207 -100 -47 -5 -69 -12 -86 -29 l-23 -23 0 -511 0 -511 23 -23
c17 -17 39 -24 85 -29 65 -7 138 -38 189 -81 46 -39 92 -134 100 -207 5 -47
12 -69 29 -86 l23 -23 474 0 c465 0 475 0 501 21 37 29 37 89 0 118 -26 20
-37 21 -449 21 l-423 0 -6 33 c-12 62 -66 158 -123 218 -58 61 -162 122 -229
135 l-34 6 0 408 0 408 33 6 c62 12 158 66 218 123 61 58 122 162 135 229 l6
34 420 0 419 0 24 25 c33 32 33 78 0 110 l-24 25 -471 0 -471 0 -23 -23z"/>
<path d="M3225 3495 c-16 -15 -25 -36 -25 -55 0 -19 9 -40 25 -55 l24 -25 419
0 420 0 6 -32 c12 -63 66 -159 123 -219 58 -61 162 -122 229 -135 l34 -6 0
-408 0 -408 -34 -6 c-67 -13 -171 -74 -229 -135 -57 -60 -111 -156 -123 -218
l-6 -33 -420 0 -419 0 -24 -25 c-16 -15 -25 -36 -25 -55 0 -19 9 -40 25 -55
l24 -25 471 0 471 0 23 23 c17 17 24 39 29 85 17 158 131 272 289 289 46 5 68
12 85 29 l23 23 0 511 0 511 -23 23 c-17 17 -39 24 -86 29 -73 8 -168 54 -207
100 -43 51 -74 124 -81 189 -5 46 -12 68 -29 85 l-23 23 -471 0 -471 0 -24
-25z"/>
<path d="M2397 3424 c-351 -63 -640 -355 -702 -709 -97 -558 349 -1064 910
-1032 455 26 806 377 832 832 32 564 -479 1011 -1040 909z m378 -178 c113 -36
198 -89 290 -181 91 -91 144 -175 182 -290 23 -71 26 -96 26 -215 0 -119 -3
-144 -26 -215 -38 -115 -91 -199 -182 -290 -91 -91 -175 -144 -290 -182 -71
-23 -96 -26 -215 -26 -119 0 -144 3 -215 26 -115 38 -199 91 -290 182 -91 91
-144 175 -182 290 -23 71 -26 96 -26 215 -1 118 3 145 25 212 39 119 92 204
182 294 110 110 236 177 381 204 88 16 250 4 340 -24z"/>
<path d="M2505 3175 c-14 -13 -25 -33 -25 -44 0 -14 -15 -26 -53 -44 -66 -30
-118 -81 -154 -150 -24 -45 -28 -64 -28 -137 0 -73 4 -92 28 -137 36 -69 88
-120 154 -150 l53 -24 0 -150 c0 -87 -4 -149 -9 -149 -22 0 -62 70 -70 121
-14 87 -83 118 -138 63 -23 -23 -25 -31 -20 -83 9 -109 83 -212 184 -258 38
-18 53 -30 53 -44 0 -31 44 -69 80 -69 36 0 80 38 80 69 0 14 15 26 53 44 66
30 118 81 154 150 24 45 28 64 28 137 0 73 -4 92 -28 137 -36 69 -88 120 -154
150 l-53 24 0 150 c0 87 4 149 9 149 22 0 62 -70 70 -121 14 -87 83 -118 138
-63 23 23 25 31 20 83 -9 109 -83 212 -184 258 -38 18 -53 30 -53 44 0 31 -44
69 -80 69 -19 0 -40 -9 -55 -25z m-25 -375 c0 -75 -4 -130 -9 -130 -6 0 -23
17 -38 37 -40 52 -40 134 0 186 15 20 32 37 38 37 5 0 9 -55 9 -130z m207
-387 c23 -30 28 -46 28 -93 0 -47 -5 -63 -28 -93 -15 -20 -32 -37 -38 -37 -5
0 -9 55 -9 130 0 75 4 130 9 130 6 0 23 -17 38 -37z"/>
</g>
</svg>
