<svg xmlns="http://www.w3.org/2000/svg" xmlns:xlink="http://www.w3.org/1999/xlink" viewBox="0 0 23 25" version="1.1" x="0px" y="0px">
  <title>Combined Shape@2x</title>
  <g stroke="none" stroke-width="1" fill="none" fill-rule="evenodd">
    <g transform="translate(-4.000000, -1.000000)" fill="#f59d00">
      <g transform="translate(3.999900, 1.000000)">
        <path d="M13.8748,0.0001 L19.5048,5.6301 L19.5048,7.6301 L11.8648,7.6301 L11.8648,2.0001 L2.5048,2.0001 L2.5048,24.0001 L6.7348,24.0001 C7.3148,24.7601 7.9948,25.4401 8.7648,26.0001 L8.7648,26.0001 L0.5048,26.0001 L0.5048,0.0001 L13.8748,0.0001 Z M14.8149,9.63 C19.3359,9.63 23.0009,13.295 23.0009,17.815 C23.0009,22.336 19.3359,26 14.8149,26 C10.2939,26 6.6299,22.336 6.6299,17.815 C6.6299,13.295 10.2939,9.63 14.8149,9.63 Z M14.8149,11.63 C11.4049,11.63 8.6299,14.404 8.6299,17.815 C8.6299,21.226 11.4049,24 14.8149,24 C18.2249,24 21.0009,21.226 21.0009,17.815 C21.0009,14.404 18.2249,11.63 14.8149,11.63 Z M14.8149,13.6303 C15.1649,13.6303 15.4949,13.6703 15.8149,13.7593 L15.8149,13.7593 L15.8149,16.8203 L18.8749,16.8203 C18.9639,17.1393 19.0039,17.4693 19.0039,17.8203 C19.0039,18.1603 18.9639,18.5003 18.8749,18.8203 L18.8749,18.8203 L13.8149,18.8203 L13.8149,13.7593 C14.1339,13.6703 14.4639,13.6303 14.8149,13.6303 Z M13.8638,2.8301 L13.8638,5.6301 L16.6738,5.6301 L13.8638,2.8301 Z"/>
      </g>
    </g>
  </g>
  <text x="0" y="41" fill="#000000" font-size="5px" font-weight="bold" font-family="'Helvetica Neue', Helvetica, Arial-Unicode, Arial, Sans-serif">Created by andrewcaliber</text>
  <text x="0" y="46" fill="#000000" font-size="5px" font-weight="bold" font-family="'Helvetica Neue', Helvetica, Arial-Unicode, Arial, Sans-serif">from the Noun Project</text>
</svg>
