<svg width="24" height="22" viewBox="0 0 24 22" fill="none" xmlns="http://www.w3.org/2000/svg">
<path d="M9.00293 7.25C9.00293 7.84674 8.76588 8.41903 8.34392 8.84099C7.92196 9.26295 7.34967 9.5 6.75293 9.5C6.15619 9.5 5.5839 9.26295 5.16194 8.84099C4.73998 8.41903 4.50293 7.84674 4.50293 7.25C4.50293 6.65326 4.73998 6.08097 5.16194 5.65901C5.5839 5.23705 6.15619 5 6.75293 5C7.34967 5 7.92196 5.23705 8.34392 5.65901C8.76588 6.08097 9.00293 6.65326 9.00293 7.25Z" fill="#484848"/>
<path d="M3.00293 0.5C2.20728 0.5 1.44422 0.816071 0.881609 1.37868C0.319 1.94129 0.00292969 2.70435 0.00292969 3.5V18.5C0.00292969 19.2956 0.319 20.0587 0.881609 20.6213C1.44422 21.1839 2.20728 21.5 3.00293 21.5H21.0029C21.7986 21.5 22.5616 21.1839 23.1243 20.6213C23.6869 20.0587 24.0029 19.2956 24.0029 18.5V3.5C24.0029 2.70435 23.6869 1.94129 23.1243 1.37868C22.5616 0.816071 21.7986 0.5 21.0029 0.5H3.00293ZM21.0029 2C21.4008 2 21.7823 2.15804 22.0636 2.43934C22.3449 2.72064 22.5029 3.10218 22.5029 3.5V13.25L16.8374 10.3295C16.6968 10.259 16.5375 10.2346 16.3822 10.2596C16.2269 10.2847 16.0833 10.3579 15.9719 10.469L10.4069 16.034L6.41693 13.376C6.27287 13.2801 6.10007 13.237 5.92784 13.2539C5.7556 13.2709 5.59453 13.3468 5.47193 13.469L1.50293 17V3.5C1.50293 3.10218 1.66097 2.72064 1.94227 2.43934C2.22357 2.15804 2.6051 2 3.00293 2H21.0029Z" fill="#484848"/>
</svg>
