<svg width="18" height="18" viewBox="0 0 18 18" fill="none" xmlns="http://www.w3.org/2000/svg">
<g id="Group">
<path id="Vector" d="M7.75855 2.05392C7.91487 1.87933 8.10625 1.73967 8.32021 1.64406C8.53416 1.54844 8.76587 1.49902 9.00021 1.49902C9.23456 1.49902 9.46627 1.54844 9.68022 1.64406C9.89417 1.73967 10.0856 1.87933 10.2419 2.05392L10.8252 2.70558C10.9919 2.89183 11.1984 3.03819 11.4294 3.13383C11.6603 3.22947 11.9098 3.27193 12.1594 3.25808L13.0344 3.20975C13.2684 3.19685 13.5025 3.23346 13.7215 3.31718C13.9404 3.40091 14.1392 3.52988 14.3049 3.69566C14.4706 3.86144 14.5995 4.0603 14.6831 4.27927C14.7667 4.49824 14.8032 4.73238 14.7902 4.96642L14.7419 5.84058C14.7282 6.09003 14.7707 6.33936 14.8663 6.57016C14.962 6.80095 15.1082 7.00729 15.2944 7.17392L15.946 7.75725C16.1208 7.91358 16.2605 8.10501 16.3562 8.31904C16.4519 8.53307 16.5014 8.76488 16.5014 8.99933C16.5014 9.23378 16.4519 9.4656 16.3562 9.67963C16.2605 9.89366 16.1208 10.0851 15.946 10.2414L15.2944 10.8247C15.1081 10.9915 14.9618 11.1979 14.8661 11.4289C14.7705 11.6598 14.728 11.9093 14.7419 12.1589L14.7902 13.0339C14.8031 13.268 14.7665 13.5021 14.6828 13.721C14.5991 13.9399 14.4701 14.1387 14.3043 14.3044C14.1385 14.4701 13.9397 14.599 13.7207 14.6826C13.5017 14.7663 13.2676 14.8028 13.0335 14.7897L12.1594 14.7414C11.9099 14.7277 11.6606 14.7702 11.4298 14.8659C11.199 14.9615 10.9927 15.1078 10.826 15.2939L10.2427 15.9456C10.0864 16.1203 9.89495 16.2601 9.68092 16.3558C9.46689 16.4515 9.23508 16.5009 9.00063 16.5009C8.76618 16.5009 8.53437 16.4515 8.32034 16.3558C8.10631 16.2601 7.91488 16.1203 7.75855 15.9456L7.17521 15.2939C7.0085 15.1077 6.80202 14.9613 6.57108 14.8657C6.34013 14.77 6.09063 14.7276 5.84105 14.7414L4.96605 14.7897C4.73201 14.8027 4.49788 14.766 4.27896 14.6823C4.06003 14.5986 3.86122 14.4696 3.69552 14.3038C3.52982 14.1381 3.40095 13.9392 3.31732 13.7202C3.2337 13.5013 3.1972 13.2671 3.21021 13.0331L3.25855 12.1589C3.27227 11.9095 3.22974 11.6601 3.13411 11.4293C3.03848 11.1986 2.89218 10.9922 2.70605 10.8256L2.05438 10.2422C1.87966 10.0859 1.73988 9.89449 1.64418 9.68046C1.54849 9.46643 1.49902 9.23462 1.49902 9.00017C1.49902 8.76572 1.54849 8.5339 1.64418 8.31987C1.73988 8.10584 1.87966 7.91441 2.05438 7.75808L2.70605 7.17475C2.89229 7.00803 3.03866 6.80156 3.13429 6.57061C3.22993 6.33966 3.2724 6.09016 3.25855 5.84058L3.21021 4.96558C3.19744 4.73161 3.23413 4.49758 3.31792 4.27875C3.4017 4.05992 3.53068 3.86122 3.69645 3.69561C3.86222 3.53 4.06104 3.40121 4.27995 3.31763C4.49885 3.23406 4.73292 3.19758 4.96688 3.21058L5.84105 3.25892C6.09049 3.27264 6.33983 3.23011 6.57062 3.13448C6.80141 3.03884 7.00775 2.89255 7.17438 2.70642L7.75855 2.05392Z" stroke="#484848" stroke-width="2"/>
<path id="Vector_2" d="M6.91699 6.91602H6.92533V6.92435H6.91699V6.91602ZM11.0837 11.0827H11.092V11.091H11.0837V11.0827Z" stroke="#484848" stroke-width="3" stroke-linejoin="round"/>
<path id="Vector_3" d="M11.5 6.5L6.5 11.5" stroke="#484848" stroke-width="2" stroke-linecap="round" stroke-linejoin="round"/>
</g>
</svg>
