<svg width="16" height="16" viewBox="0 0 16 16" fill="none" xmlns="http://www.w3.org/2000/svg">
<g opacity="0.7">
<path d="M1.33325 2.49967C1.33325 1.85501 1.85525 1.33301 2.49992 1.33301H13.4999C14.1439 1.33301 14.6666 1.85501 14.6666 2.49967V6.66634C14.6666 6.79895 14.6139 6.92613 14.5201 7.01989C14.4264 7.11366 14.2992 7.16634 14.1666 7.16634C14.034 7.16634 13.9068 7.11366 13.813 7.01989C13.7193 6.92613 13.6666 6.79895 13.6666 6.66634V5.83301H5.83325V13.6663H6.66659C6.79919 13.6663 6.92637 13.719 7.02014 13.8128C7.11391 13.9066 7.16659 14.0337 7.16659 14.1663C7.16659 14.299 7.11391 14.4261 7.02014 14.5199C6.92637 14.6137 6.79919 14.6663 6.66659 14.6663H2.49992C2.1905 14.6663 1.89375 14.5434 1.67496 14.3246C1.45617 14.1058 1.33325 13.8091 1.33325 13.4997V2.49967ZM5.83325 2.33301V4.83301H13.6666V2.49967C13.6666 2.45547 13.649 2.41308 13.6178 2.38182C13.5865 2.35057 13.5441 2.33301 13.4999 2.33301H5.83325ZM4.83325 13.6663V5.83301H2.33325V13.4997C2.33325 13.5917 2.40792 13.6663 2.49992 13.6663H4.83325ZM2.33325 4.83301H4.83325V2.33301H2.49992C2.45572 2.33301 2.41332 2.35057 2.38207 2.38182C2.35081 2.41308 2.33325 2.45547 2.33325 2.49967V4.83301Z" fill="#484848"/>
<path d="M14 11.7187H14.1V11.6187V11.0473V10.9473H14H12.3857V9.33301V9.23301H12.2857H11.7143H11.6143V9.33301V10.9473H10H9.9V11.0473V11.6187V11.7187H10H11.6143V13.333V13.433H11.7143H12.2857H12.3857V13.333V11.7187H14Z" fill="#484848" stroke="#484848" stroke-width="0.2"/>
</g>
</svg>
