<svg width="20" height="20" viewBox="0 0 20 20" fill="none" xmlns="http://www.w3.org/2000/svg">
<g id="Outline Icon" opacity="0.5">
<path id="Vector" d="M6.66668 6.66634H5.64752C4.56418 6.66634 4.02335 6.66634 3.63918 6.88717C3.30085 7.08134 3.04085 7.38717 2.90502 7.75301C2.75085 8.16884 2.83918 8.70301 3.01752 9.76967V9.77134L3.79502 14.438C3.92752 15.2297 3.99335 15.6255 4.19085 15.923C4.36585 16.1847 4.61002 16.3913 4.89668 16.5205C5.22168 16.6663 5.62335 16.6663 6.42585 16.6663H13.5742C14.3767 16.6663 14.7775 16.6663 15.1034 16.5205C15.39 16.3913 15.635 16.1847 15.8092 15.923C16.0067 15.6255 16.0725 15.2297 16.2042 14.438L16.9825 9.77134V9.76801C17.1609 8.70134 17.2492 8.16801 17.095 7.75301C16.9594 7.38751 16.6999 7.08113 16.3617 6.88717C15.9775 6.66634 15.4359 6.66634 14.3525 6.66634H13.3334M6.66668 6.66634H13.3334M6.66668 6.66634C6.66668 5.78229 7.01787 4.93444 7.64299 4.30932C8.26812 3.6842 9.11596 3.33301 10 3.33301C10.8841 3.33301 11.7319 3.6842 12.357 4.30932C12.9822 4.93444 13.3334 5.78229 13.3334 6.66634" stroke="#484848" stroke-width="2" stroke-linecap="round" stroke-linejoin="round"/>
</g>
</svg>
