<svg width="18" height="18" viewBox="0 0 18 18" fill="#024d6c" xmlns="http://www.w3.org/2000/svg">
<path d="M7.5 3C6.70435 3 5.94129 3.31607 5.37868 3.87868C4.81607 4.44129 4.5 5.20435 4.5 6C4.5 6.79565 4.81607 7.55871 5.37868 8.12132C5.94129 8.68393 6.70435 9 7.5 9C8.29565 9 9.05871 8.68393 9.62132 8.12132C10.1839 7.55871 10.5 6.79565 10.5 6C10.5 5.20435 10.1839 4.44129 9.62132 3.87868C9.05871 3.31607 8.29565 3 7.5 3ZM12.75 9C12.7042 8.99915 12.6595 9.01447 12.6238 9.04327C12.5882 9.07207 12.5638 9.11251 12.555 9.1575L12.4125 10.1475C12.1875 10.245 11.97 10.365 11.775 10.5L10.845 10.125C10.7625 10.125 10.665 10.125 10.6125 10.2225L9.8625 11.52C9.8175 11.6025 9.8325 11.7 9.9075 11.76L10.7025 12.375C10.6726 12.6241 10.6726 12.8759 10.7025 13.125L9.9075 13.74C9.8738 13.7689 9.85097 13.8084 9.84278 13.8521C9.8346 13.8957 9.84156 13.9408 9.8625 13.98L10.6125 15.2775C10.6575 15.375 10.755 15.375 10.845 15.375L11.775 15C11.97 15.135 12.18 15.2625 12.4125 15.3525L12.555 16.3425C12.57 16.4325 12.645 16.5 12.75 16.5H14.25C14.3325 16.5 14.415 16.4325 14.43 16.3425L14.5725 15.3525C14.7975 15.255 15 15.135 15.2025 15L16.125 15.375C16.2225 15.375 16.32 15.375 16.3725 15.2775L17.1225 13.98C17.1434 13.9408 17.1504 13.8957 17.1422 13.8521C17.134 13.8084 17.1112 13.7689 17.0775 13.74L16.275 13.125C16.29 12.9975 16.305 12.8775 16.305 12.75C16.305 12.6225 16.2975 12.5025 16.275 12.375L17.07 11.76C17.1037 11.7311 17.1265 11.6916 17.1347 11.6479C17.1429 11.6043 17.1359 11.5592 17.115 11.52L16.365 10.2225C16.32 10.125 16.2225 10.125 16.125 10.125L15.2025 10.5C15 10.365 14.7975 10.2375 14.565 10.1475L14.4225 9.1575C14.4178 9.11478 14.3977 9.07524 14.3659 9.04626C14.3342 9.01727 14.293 9.00083 14.25 9H12.75ZM7.5 10.5C4.185 10.5 1.5 11.8425 1.5 13.5V15H8.76C8.42527 14.2971 8.25107 13.5285 8.25 12.75C8.25152 11.9965 8.41523 11.2521 8.73 10.5675C8.3325 10.5225 7.92 10.5 7.5 10.5ZM13.5 11.625C14.1225 11.625 14.625 12.1275 14.625 12.75C14.625 13.3725 14.1225 13.875 13.5 13.875C12.87 13.875 12.375 13.3725 12.375 12.75C12.375 12.1275 12.8775 11.625 13.5 11.625Z" fill="024d6c"/>
</svg>
